<svg version="1.1" id="Ebene_1" xmlns="http://www.w3.org/2000/svg" xmlns:xlink="http://www.w3.org/1999/xlink" x="0px" y="0px" viewBox="0 0 160 22" style="enable-background:new 0 0 160 22;" xml:space="preserve">
    <style type="text/css">
        .st0 {
            fill: #FFFFFF;
        }
    </style>
    <path class="st0" d="M154.7,6c0.8,0,1.6,0.1,2.2,0.4c0.7,0.3,1.2,0.6,1.7,1c0.5,0.4,0.8,0.9,1,1.4c0.2,0.5,0.4,1.1,0.4,1.7
        	c0,1.1-0.3,2-0.8,2.6c-0.5,0.7-1.2,1.2-1.9,1.6c-0.8,0.4-1.6,0.7-2.6,0.8c-0.9,0.1-1.8,0.2-2.6,0.2c-0.5,0-1,0-1.6-0.1
        	c-0.5,0-1-0.1-1.4-0.2c0.2,1.3,0.6,2.3,1.4,2.9c0.7,0.7,1.7,1,2.9,1c1,0,1.8-0.1,2.6-0.4c0.6-0.2,1.2-0.4,1.7-0.6l0.2-0.1l0.2,2.3
        	l-0.2,0.1c-0.5,0.2-1.2,0.5-2,0.7c-0.9,0.2-1.9,0.4-3,0.4c-1,0-1.8-0.2-2.6-0.5c-0.8-0.3-1.5-0.8-2-1.4s-1-1.3-1.3-2.2
        	c-0.3-0.9-0.5-1.8-0.5-2.9c0-1.2,0.2-2.3,0.6-3.4c0.4-1.1,0.9-2,1.6-2.8s1.6-1.5,2.6-1.9C152.3,6.3,153.4,6,154.7,6z M9.6,6
        	c1.1,0,2.1,0.1,3,0.3C13.4,6.6,14,6.8,14.5,7l0.2,0.1l-1.8,10.4c0,0.1,0,0.1,0,0.2c0,0.1,0,0.3,0,0.4c0,0.5,0.2,0.9,0.5,1.1
        	c0.3,0.2,0.6,0.3,1,0.3l0.2,0l-0.9,2l-0.2,0c-0.9,0-1.7-0.3-2.2-0.8c-0.6-0.5-0.8-1.3-0.8-2.4c-0.5,0.9-1.2,1.7-2,2.4
        	c-0.8,0.7-1.8,1-2.9,1c-0.7,0-1.4-0.1-2.1-0.4c-0.7-0.3-1.2-0.7-1.8-1.2c-0.5-0.5-0.9-1.2-1.2-2C0.2,17.4,0,16.5,0,15.5
        	c0-1.4,0.2-2.7,0.7-3.8c0.5-1.2,1.1-2.2,2-3c0.9-0.8,1.9-1.5,3.1-1.9C6.9,6.3,8.2,6,9.6,6z M116.9,6c0.9,0,1.7,0.1,2.4,0.3
        	c0.6,0.2,1.1,0.4,1.6,0.7l0.3,0.2l-1.1,2.2l-0.3-0.2c-0.4-0.2-0.8-0.4-1.3-0.6c-0.6-0.2-1.2-0.3-1.8-0.3c-0.8,0-1.5,0.2-2.2,0.5
        	c-0.7,0.3-1.2,0.8-1.7,1.4c-0.5,0.6-0.8,1.2-1.1,2s-0.4,1.6-0.4,2.5c0,1.5,0.4,2.6,1.1,3.5c0.7,0.9,1.7,1.3,3,1.3
        	c0.7,0,1.4-0.1,1.9-0.3c0.4-0.1,0.9-0.3,1.3-0.5l0.3-0.1l0.3,2.3L119,21c-0.4,0.2-1,0.4-1.5,0.5c-0.7,0.2-1.5,0.3-2.5,0.3
        	c-0.9,0-1.8-0.2-2.6-0.5c-0.8-0.3-1.4-0.8-2-1.4c-0.6-0.6-1-1.3-1.3-2.1c-0.3-0.8-0.5-1.7-0.5-2.8c0-1.2,0.2-2.4,0.6-3.5
        	c0.4-1.1,0.9-2,1.6-2.9c0.7-0.8,1.6-1.5,2.6-2C114.4,6.3,115.6,6,116.9,6z M97.3,0h2.6l-3.1,17.5c0,0.1,0,0.1,0,0.2
        	c0,0.1,0,0.3,0,0.4c0,0.5,0.2,0.9,0.5,1.1c0.3,0.2,0.6,0.3,1,0.3l0.2,0l-0.9,2l-0.2,0c-0.9,0-1.7-0.3-2.2-0.8
        	c-0.6-0.5-0.8-1.3-0.8-2.4c-0.6,0.9-1.3,1.7-2.1,2.4c-0.9,0.7-1.8,1-3,1c-0.7,0-1.4-0.1-2.1-0.4c-0.7-0.3-1.3-0.7-1.8-1.2
        	c-0.5-0.5-0.9-1.2-1.2-2c-0.3-0.8-0.5-1.7-0.5-2.6c0-1.5,0.2-2.8,0.7-4s1-2.2,1.8-3c0.7-0.8,1.5-1.4,2.5-1.9S90.5,6,91.4,6
        	c1,0,1.9,0.3,2.7,0.8c0.7,0.4,1.2,1,1.6,1.6l0.1,0.2L97.3,0z M76.7,6c0.8,0,1.6,0.1,2.2,0.4c0.7,0.3,1.2,0.6,1.7,1
        	c0.5,0.4,0.8,0.9,1,1.4c0.2,0.5,0.4,1.1,0.4,1.7c0,1.1-0.3,2-0.8,2.6c-0.5,0.7-1.2,1.2-1.9,1.6c-0.8,0.4-1.6,0.7-2.6,0.8
        	c-0.9,0.1-1.8,0.2-2.6,0.2c-0.5,0-1,0-1.6-0.1c-0.5,0-1-0.1-1.4-0.2c0.2,1.3,0.6,2.3,1.4,2.9c0.7,0.7,1.7,1,2.9,1
        	c1,0,1.8-0.1,2.6-0.4c0.6-0.2,1.2-0.4,1.7-0.6l0.2-0.1l0.2,2.3L80,20.8c-0.5,0.2-1.2,0.5-2,0.7c-0.9,0.2-1.9,0.4-3,0.4
        	c-1,0-1.8-0.2-2.6-0.5c-0.8-0.3-1.5-0.8-2-1.4c-0.6-0.6-1-1.3-1.3-2.2C68.7,17,68.6,16,68.6,15c0-1.2,0.2-2.3,0.6-3.4
        	c0.4-1.1,0.9-2,1.6-2.8c0.7-0.8,1.6-1.5,2.6-1.9C74.4,6.3,75.5,6,76.7,6z M61.7,6c0.6,0,1.2,0.1,1.7,0.3c0.5,0.2,1,0.5,1.3,0.9
        	c0.4,0.4,0.7,0.8,0.9,1.3c0.2,0.5,0.3,1,0.3,1.6c0,0.4,0,0.9-0.1,1.5l0,0.3l-1.7,9.5h-2.6l1.7-9l0-0.2c0.1-0.4,0.1-0.7,0.1-0.8
        	c0-0.2,0-0.4,0-0.6c0-0.8-0.2-1.4-0.7-1.8c-0.4-0.4-1-0.7-1.7-0.7c-0.5,0-1,0.1-1.6,0.4C58.9,9,58.3,9.4,57.8,10
        	c-0.5,0.6-1,1.3-1.4,2.1c-0.4,0.8-0.7,1.7-0.9,2.7l-0.1,0.4l-1.1,6.2h-2.6l1.7-9l0-0.2c0.1-0.4,0.1-0.7,0.1-0.8c0-0.2,0-0.4,0-0.6
        	c0-0.8-0.2-1.4-0.7-1.8c-0.4-0.4-1-0.7-1.7-0.7c-0.5,0-1,0.1-1.6,0.4s-1.1,0.7-1.6,1.3c-0.5,0.6-1,1.3-1.4,2.2
        	c-0.4,0.8-0.7,1.7-0.9,2.8l-0.1,0.4l-1,6H42l2.6-15.1h2.5l-0.6,3.5l0.1-0.3c0.6-1,1.3-1.9,2.2-2.5c1-0.7,2-1,3.1-1
        	c0.6,0,1.1,0.1,1.6,0.3c0.5,0.2,0.9,0.5,1.3,0.8c0.4,0.3,0.6,0.7,0.9,1.2c0.2,0.5,0.3,1,0.4,1.5c0.7-1.2,1.5-2.2,2.4-2.8
        	C59.6,6.4,60.6,6,61.7,6z M139.6,6c0.7,0,1.3,0.1,1.8,0.3c0.5,0.2,1,0.5,1.4,0.9c0.4,0.4,0.7,0.8,0.9,1.3c0.2,0.5,0.3,1,0.3,1.6
        	c0,0.4,0,0.9-0.1,1.5l0,0.3l-1.7,9.5h-2.6l1.6-9l0-0.2c0.1-0.4,0.1-0.7,0.1-0.8c0-0.2,0-0.4,0-0.6c0-0.8-0.2-1.4-0.7-1.8
        	c-0.4-0.4-1-0.7-1.7-0.7c-0.5,0-1.1,0.1-1.6,0.4c-0.6,0.3-1.2,0.7-1.7,1.3c-0.6,0.6-1.1,1.3-1.5,2.2c-0.4,0.8-0.7,1.8-0.9,2.8
        	l-0.1,0.4l-1,6h-2.6l2.6-15.1h2.5l-0.6,3.5l0.1-0.3c0.6-1,1.3-1.9,2.3-2.5C137.4,6.4,138.4,6,139.6,6z M22.5,6.4l-2.6,15.1h-2.6
        	l2.6-15.1H22.5z M33.8,1l2.2,1l-7.7,12.9H34L35,9h2.6l-1,5.8H39l-0.4,2.3h-2.5l-0.8,4.4h-2.6l0.8-4.4h-8.7l0.3-2L33.8,1z M127.3,6.4
        	l-2.6,15.1H122l2.6-15.1H127.3z M106.5,6.4l-2.6,15.1h-2.6l2.6-15.1H106.5z M91.6,8.3c-0.7,0-1.3,0.2-2,0.5
        	c-0.6,0.3-1.2,0.8-1.7,1.4c-0.5,0.6-0.9,1.3-1.2,2.2c-0.3,0.9-0.4,1.8-0.4,2.9c0,0.7,0.1,1.3,0.3,1.9c0.2,0.5,0.5,1,0.8,1.4
        	c0.3,0.4,0.7,0.6,1.1,0.8c0.4,0.2,0.9,0.3,1.3,0.3c0.5,0,1.1-0.1,1.6-0.4c0.5-0.3,1-0.6,1.4-1.1c0.4-0.5,0.8-1.1,1.1-1.8
        	c0.3-0.6,0.5-1.3,0.6-2l0.1-0.4l0.5-3l-0.1-0.2C94.9,10,94.4,9.4,93.8,9C93.2,8.5,92.4,8.3,91.6,8.3z M9.3,8.2c-1,0-1.9,0.2-2.7,0.5
        	c-0.8,0.3-1.5,0.8-2.1,1.5c-0.6,0.6-1,1.4-1.3,2.2c-0.3,0.9-0.5,1.8-0.5,2.8c0,0.7,0.1,1.3,0.3,1.8c0.2,0.5,0.5,1,0.8,1.4
        	c0.3,0.4,0.7,0.6,1.1,0.8c0.4,0.2,0.8,0.3,1.3,0.3c0.6,0,1.1-0.2,1.7-0.5c0.5-0.3,1-0.8,1.4-1.3c0.4-0.6,0.8-1.2,1.1-2
        	c0.3-0.7,0.5-1.4,0.6-2.2l0.1-0.4l0.8-4.5l-0.3-0.1c-0.3-0.1-0.6-0.1-0.9-0.2C10.3,8.3,9.9,8.2,9.3,8.2z M76.5,8.2
        	c-0.7,0-1.3,0.1-1.9,0.4C74,8.9,73.5,9.3,73,9.7c-0.5,0.5-0.8,1-1.1,1.7c-0.3,0.6-0.5,1.3-0.6,2.1c0.4,0.1,0.9,0.2,1.3,0.2
        	c0.4,0,0.9,0.1,1.5,0.1c1.6,0,2.9-0.2,3.9-0.7c0.9-0.5,1.4-1.2,1.4-2.3c0-0.7-0.3-1.3-0.8-1.7C78.1,8.5,77.4,8.2,76.5,8.2z
        	 M154.5,8.2c-0.7,0-1.3,0.1-1.9,0.4c-0.6,0.3-1.1,0.6-1.6,1.1c-0.5,0.5-0.8,1-1.1,1.7c-0.3,0.6-0.5,1.3-0.6,2.1
        	c0.4,0.1,0.9,0.2,1.3,0.2c0.4,0,0.9,0.1,1.5,0.1c1.6,0,2.9-0.2,3.9-0.7c0.9-0.5,1.4-1.2,1.4-2.3c0-0.7-0.3-1.3-0.8-1.7
        	C156.1,8.5,155.4,8.2,154.5,8.2z M22.1,0.1c0.5,0,1,0.2,1.2,0.5s0.4,0.7,0.4,1.1c0,0.6-0.2,1.1-0.6,1.5c-0.4,0.4-0.9,0.6-1.5,0.6
        	c-0.5,0-1-0.2-1.2-0.5c-0.3-0.3-0.4-0.7-0.4-1.1c0-0.6,0.2-1.1,0.6-1.5C21.1,0.3,21.6,0.1,22.1,0.1z M106.2,0.1c0.5,0,1,0.2,1.2,0.5
        	c0.3,0.3,0.4,0.7,0.4,1.1c0,0.6-0.2,1.1-0.6,1.5c-0.4,0.4-0.9,0.6-1.5,0.6c-0.5,0-1-0.2-1.2-0.5c-0.3-0.3-0.4-0.7-0.4-1.1
        	c0-0.6,0.2-1.1,0.6-1.5C105.1,0.3,105.6,0.1,106.2,0.1z M126.9,0.1c0.5,0,1,0.2,1.2,0.5c0.3,0.3,0.4,0.7,0.4,1.1
        	c0,0.6-0.2,1.1-0.6,1.5c-0.4,0.4-0.9,0.6-1.5,0.6c-0.5,0-1-0.2-1.2-0.5c-0.3-0.3-0.4-0.7-0.4-1.1c0-0.6,0.2-1.1,0.6-1.5
        	C125.9,0.3,126.4,0.1,126.9,0.1z"></path>
</svg>
