<svg width="190" height="30" viewBox="0 0 190 30" fill="none" xmlns="http://www.w3.org/2000/svg">
    <path fill-rule="evenodd" clip-rule="evenodd" d="M0.84274 20.1296L0.841797 0.269585L35.3535 0.268646L35.3535 20.1315L18.1009 29.9701L0.84274 20.1296ZM175.244 24.6246L175.172 24.6743C174.748 24.9706 174.395 25.2922 174.114 25.6391C173.834 25.9861 173.617 26.3583 173.468 26.7559C173.317 27.1525 173.243 27.5519 173.243 27.9513C173.243 28.4858 173.388 28.918 173.68 29.249C173.97 29.5781 174.352 29.7432 174.826 29.7432C175.247 29.7432 175.605 29.5988 175.9 29.3081C176.195 29.0165 176.342 28.663 176.342 28.2448C176.342 27.8398 176.207 27.4985 175.936 27.2191C175.664 26.9406 175.331 26.8009 174.935 26.8009C174.671 26.8009 174.405 26.8703 174.139 27.0081C174.277 26.6133 174.471 26.2711 174.724 25.9786C174.977 25.686 175.295 25.4179 175.679 25.1713L175.244 24.6246ZM173.957 28.121C173.957 27.9832 173.966 27.8594 173.987 27.7469C174.149 27.6372 174.286 27.5632 174.396 27.5228C174.504 27.4816 174.625 27.4609 174.759 27.4609C175.02 27.4609 175.231 27.5369 175.392 27.685C175.551 27.8323 175.63 28.0273 175.63 28.2673C175.63 28.5027 175.555 28.6977 175.406 28.8515C175.256 29.0062 175.066 29.0831 174.834 29.0831C174.579 29.0831 174.368 28.994 174.204 28.8121C174.038 28.6321 173.957 28.4023 173.957 28.121ZM52.802 27.5931L52.2558 27.2631C51.9133 27.0549 51.6689 26.8496 51.5255 26.648C51.3802 26.4464 51.3057 26.2148 51.3057 25.9522C51.3057 25.5584 51.4434 25.2396 51.7189 24.993C51.9916 24.7474 52.3473 24.6236 52.7869 24.6236C53.2058 24.6236 53.5889 24.7427 53.9408 24.9771V25.7835C53.5785 25.4403 53.1898 25.2687 52.7737 25.2687C52.5397 25.2687 52.3473 25.3222 52.1963 25.43C52.0454 25.5378 51.9699 25.6756 51.9699 25.8435C51.9699 25.9935 52.0265 26.1332 52.1378 26.2626C52.2491 26.3929 52.4275 26.5308 52.6747 26.6742L53.2219 26.9986C53.8304 27.3643 54.1361 27.8275 54.1361 28.392C54.1361 28.7914 54.0031 29.1177 53.7332 29.368C53.4644 29.6184 53.1134 29.7431 52.6831 29.7431C52.1888 29.7431 51.7378 29.5903 51.3302 29.2846V28.3798C51.7189 28.8711 52.1661 29.1158 52.6775 29.1158C52.902 29.1158 53.0898 29.053 53.2398 28.9283C53.3889 28.8036 53.4644 28.647 53.4644 28.4576C53.4644 28.1538 53.2417 27.865 52.802 27.5931ZM62.1398 24.6978H62.8568L60.8321 29.7113H60.6661L59.031 25.6513L57.3752 29.7113H57.2054L55.1948 24.6978H55.9194L57.2988 28.1389L58.6951 24.6978H59.382L60.7689 28.1389L62.1398 24.6978ZM64.9676 24.6977H64.2459V29.6868H64.9676V24.6977ZM68.1544 27.5931L67.6091 27.2631C67.2666 27.0549 67.0213 26.8496 66.8769 26.648C66.7326 26.4464 66.6609 26.2148 66.6609 25.9522C66.6609 25.5584 66.7958 25.2396 67.0713 24.993C67.3449 24.7474 67.7016 24.6236 68.1393 24.6236C68.5592 24.6236 68.9422 24.7427 69.2932 24.9771V25.7835C68.9309 25.4403 68.5441 25.2687 68.1271 25.2687C67.8921 25.2687 67.7006 25.3222 67.5497 25.43C67.3987 25.5378 67.3242 25.6756 67.3242 25.8435C67.3242 25.9935 67.3789 26.1332 67.4902 26.2626C67.6034 26.3929 67.7817 26.5308 68.0271 26.6742L68.5743 26.9986C69.1838 27.3643 69.4894 27.8275 69.4894 28.392C69.4894 28.7914 69.3555 29.1177 69.0866 29.368C68.8167 29.6184 68.4667 29.7431 68.0365 29.7431C67.543 29.7431 67.0911 29.5903 66.6845 29.2846V28.3798C67.0723 28.8711 67.5213 29.1158 68.0308 29.1158C68.2554 29.1158 68.4431 29.053 68.5922 28.9283C68.7422 28.8036 68.8167 28.647 68.8167 28.4576C68.8167 28.1538 68.596 27.865 68.1544 27.5931ZM71.8031 27.2631L72.3485 27.5931C72.79 27.865 73.0099 28.1538 73.0099 28.4576C73.0099 28.647 72.9363 28.8036 72.7863 28.9283C72.6362 29.053 72.4494 29.1158 72.2249 29.1158C71.7145 29.1158 71.2654 28.8711 70.8776 28.3798V29.2846C71.2852 29.5903 71.7352 29.7431 72.2315 29.7431C72.6608 29.7431 73.0099 29.6184 73.2797 29.368C73.5486 29.1177 73.6826 28.7914 73.6826 28.392C73.6826 27.8275 73.3788 27.3643 72.7674 26.9986L72.2211 26.6742C71.9758 26.5308 71.7975 26.3929 71.6852 26.2626C71.5748 26.1332 71.5173 25.9935 71.5173 25.8435C71.5173 25.6756 71.5937 25.5378 71.7428 25.43C71.8937 25.3222 72.0871 25.2687 72.3211 25.2687C72.7381 25.2687 73.125 25.4403 73.4854 25.7835V24.9771C73.1372 24.7427 72.7523 24.6236 72.3334 24.6236C71.8947 24.6236 71.539 24.7474 71.2644 24.993C70.9908 25.2396 70.854 25.5584 70.854 25.9522C70.854 26.2148 70.9267 26.4464 71.071 26.648C71.2154 26.8496 71.4588 27.0549 71.8031 27.2631ZM80.2711 24.6733H79.7663L77.6143 29.6859H78.3521L78.9785 28.211H81.1165L81.7845 29.6859H82.5194L80.2711 24.6733ZM80.0125 25.7704L80.8277 27.5753H79.2549L80.0125 25.7704ZM87.2016 24.6978H86.4788L84.9815 28.2045L83.4776 24.6978H82.7559L84.907 29.7113H85.0749L87.2016 24.6978ZM90.0929 24.6733H89.5881L87.436 29.6859H88.1748L88.7994 28.211H90.9382L91.6043 29.6859H92.3421L90.0929 24.6733ZM89.837 25.7704L90.6522 27.5753H89.0803L89.837 25.7704ZM98.3832 24.6977H97.7029V28.5729L94.3215 24.6977H93.7422V29.6868H94.4139V25.8444L97.769 29.6868H98.3832V24.6977ZM99.8616 24.6977H104.053V25.3334H102.306V29.6868L101.582 29.6868V25.3334H99.8616V24.6977ZM105.843 27.7216H104.055V28.4145H105.843V27.7216ZM110.226 27.2246H111.916V29.3446C111.298 29.6109 110.685 29.7431 110.077 29.7431C109.246 29.7431 108.582 29.5021 108.085 29.0192C107.588 28.5354 107.34 27.94 107.34 27.2321C107.34 26.4858 107.597 25.8641 108.112 25.3681C108.627 24.8721 109.274 24.6236 110.049 24.6236C110.333 24.6236 110.6 24.6546 110.854 24.7174C111.109 24.7783 111.43 24.8927 111.817 25.0577V25.7825C111.219 25.4347 110.625 25.2603 110.036 25.2603C109.487 25.2603 109.025 25.4469 108.65 25.8182C108.274 26.1913 108.086 26.6489 108.086 27.1899C108.086 27.7591 108.274 28.2232 108.649 28.5832C109.024 28.9433 109.507 29.1233 110.098 29.1233C110.385 29.1233 110.728 29.0586 111.127 28.9274L111.195 28.9058V27.8613H110.226V27.2246ZM115.091 24.6733H115.596L117.845 29.6859H117.108L116.44 28.211H114.302L113.677 29.6859H112.939L115.091 24.6733ZM116.152 27.5753L115.337 25.7704L114.58 27.5753H116.152ZM118.952 24.6977V29.6859H119.675V27.5181H119.862C120.096 27.5181 120.264 27.5453 120.363 27.5978C120.463 27.6512 120.572 27.7394 120.698 27.8603C120.819 27.9804 120.956 28.1435 121.106 28.3488L121.345 28.738L121.567 29.1018L121.708 29.2977C121.729 29.3259 121.744 29.3465 121.751 29.3577L121.97 29.6859H122.825L122.558 29.3296C122.453 29.1871 122.313 28.9752 122.138 28.6911C121.86 28.242 121.644 27.9269 121.49 27.7459C121.334 27.565 121.176 27.4225 121.015 27.3174C121.288 27.2143 121.498 27.054 121.644 26.8421C121.791 26.6311 121.864 26.3789 121.864 26.0882C121.864 25.6606 121.716 25.3231 121.418 25.0728C121.12 24.8224 120.716 24.6977 120.208 24.6977H118.952ZM119.674 25.3006H119.888C120.238 25.3006 120.489 25.3269 120.641 25.3794C120.791 25.4328 120.91 25.5228 120.993 25.6494C121.076 25.7788 121.118 25.9223 121.118 26.0779C121.118 26.2392 121.08 26.3817 121.005 26.5064C120.93 26.6321 120.825 26.7268 120.69 26.7887C120.557 26.8515 120.307 26.8824 119.945 26.8824H119.674V25.3006ZM123.903 29.6869V24.6977H125.599C126.284 24.6977 126.825 24.799 127.224 25.0034C127.623 25.2069 127.94 25.5069 128.174 25.9035C128.41 26.2983 128.529 26.7305 128.529 27.1975C128.529 27.5313 128.463 27.8519 128.333 28.1557C128.203 28.4614 128.019 28.7296 127.779 28.9612C127.534 29.1993 127.249 29.3793 126.924 29.5012C126.736 29.5744 126.56 29.6241 126.403 29.6484C126.243 29.6747 125.94 29.6869 125.495 29.6869H123.903ZM125.525 25.3335H124.625V29.0503H125.547C125.909 29.0503 126.187 29.0268 126.385 28.9771C126.585 28.9284 126.752 28.8665 126.884 28.7915C127.017 28.7165 127.139 28.6236 127.25 28.5139C127.606 28.1558 127.784 27.7038 127.784 27.1581C127.784 26.6218 127.601 26.1839 127.236 25.8454C127.101 25.7189 126.949 25.6148 126.773 25.5341C126.598 25.4526 126.433 25.3991 126.278 25.3729C126.122 25.3466 125.871 25.3335 125.525 25.3335ZM130.246 24.6977H133.092V25.3334H130.966V26.858H133.018V27.4937H130.966V29.0502L133.158 29.0502V29.6868L130.246 29.6868V24.6977ZM138.322 27.2631L138.869 27.5931C139.31 27.865 139.53 28.1538 139.53 28.4576C139.53 28.647 139.457 28.8036 139.307 28.9283C139.156 29.053 138.968 29.1158 138.744 29.1158C138.234 29.1158 137.786 28.8711 137.397 28.3798V29.2846C137.805 29.5903 138.255 29.7431 138.75 29.7431C139.18 29.7431 139.53 29.6184 139.799 29.368C140.069 29.1177 140.203 28.7914 140.203 28.392C140.203 27.8275 139.898 27.3643 139.288 26.9986L138.742 26.6742C138.493 26.5308 138.316 26.3929 138.206 26.2626C138.092 26.1332 138.038 25.9935 138.038 25.8435C138.038 25.6756 138.112 25.5378 138.263 25.43C138.414 25.3222 138.607 25.2687 138.841 25.2687C139.258 25.2687 139.645 25.4403 140.007 25.7835V24.9771C139.657 24.7427 139.272 24.6236 138.853 24.6236C138.415 24.6236 138.058 24.7474 137.785 24.993C137.511 25.2396 137.373 25.5584 137.373 25.9522C137.373 26.2148 137.445 26.4464 137.59 26.648C137.736 26.8496 137.979 27.0549 138.322 27.2631ZM141.82 24.6977H142.543V29.6868H141.82V24.6977ZM149.145 24.6977H148.465V28.5729L145.082 24.6977H144.503V29.6868H145.174V25.8444L148.529 29.6868H149.145V24.6977ZM155.378 28.5289V29.3118C154.852 29.5996 154.243 29.7431 153.553 29.7431C152.992 29.7431 152.517 29.6315 152.128 29.4065C151.738 29.1824 151.429 28.8739 151.202 28.4801C150.973 28.0872 150.86 27.6616 150.86 27.2031C150.86 26.4764 151.12 25.8641 151.64 25.3681C152.16 24.8721 152.803 24.6236 153.565 24.6236C154.092 24.6236 154.677 24.7605 155.322 25.0315V25.7985C154.736 25.4666 154.163 25.3006 153.604 25.3006C153.03 25.3006 152.552 25.4816 152.174 25.8425C151.795 26.2035 151.605 26.6564 151.605 27.2012C151.605 27.7488 151.792 28.2007 152.166 28.5523C152.539 28.9067 153.016 29.083 153.598 29.083C154.206 29.083 154.8 28.8983 155.378 28.5289ZM159.928 24.6977H157.082V29.6868H159.994V29.0502L157.805 29.0502V27.4937L159.854 27.4937V26.858L157.805 26.858V25.3334H159.928V24.6977ZM165.39 24.6977H166.111V29.6868H165.39V24.6977ZM168.76 26.0273C168.76 25.6363 168.908 25.3062 169.203 25.0325C169.497 24.7605 169.858 24.6236 170.284 24.6236C170.705 24.6236 171.058 24.7587 171.345 25.0287C171.636 25.2987 171.778 25.6316 171.778 26.0273C171.778 26.4717 171.572 26.8402 171.156 27.1299C171.621 27.3981 171.853 27.7928 171.853 28.3123C171.853 28.7267 171.703 29.068 171.4 29.3381C171.098 29.6081 170.717 29.7422 170.257 29.7422C169.802 29.7422 169.418 29.6053 169.109 29.3296C168.801 29.053 168.647 28.7117 168.647 28.3048C168.647 27.7975 168.882 27.4056 169.355 27.1299C169.143 26.9584 168.99 26.7877 168.899 26.6171C168.807 26.4483 168.76 26.2504 168.76 26.0273ZM171.133 28.2729V28.3442C171.133 28.558 171.053 28.7314 170.889 28.8655C170.727 28.9996 170.519 29.0671 170.265 29.0671C170 29.0671 169.785 28.994 169.619 28.8467C169.452 28.7014 169.368 28.512 169.368 28.2795C169.368 28.0479 169.451 27.8594 169.614 27.7122C169.776 27.5669 169.986 27.4928 170.244 27.4928C170.507 27.4928 170.721 27.5659 170.886 27.7113C171.051 27.8557 171.133 28.0432 171.133 28.2729ZM170.84 25.5116C170.99 25.6532 171.065 25.8323 171.065 26.0507C171.065 26.2561 170.989 26.4324 170.834 26.5796C170.68 26.7268 170.495 26.7999 170.276 26.7999C170.056 26.7999 169.867 26.7258 169.71 26.5786C169.552 26.4295 169.475 26.2505 169.475 26.0432C169.475 25.8257 169.548 25.6476 169.696 25.5078C169.846 25.37 170.037 25.2997 170.269 25.2997C170.499 25.2997 170.69 25.3709 170.84 25.5116ZM179.289 24.6236C179.748 24.6236 180.129 24.8646 180.429 25.3447C180.729 25.8257 180.879 26.4351 180.879 27.1749C180.879 27.9325 180.729 28.5486 180.429 29.0239C180.129 29.4984 179.739 29.7356 179.261 29.7356C178.774 29.7356 178.383 29.5031 178.089 29.038C177.796 28.5729 177.648 27.956 177.648 27.188C177.648 26.4304 177.8 25.8135 178.103 25.3372C178.409 24.8618 178.803 24.6236 179.289 24.6236ZM179.296 25.3006H179.261C178.985 25.3006 178.765 25.4694 178.605 25.8069C178.443 26.1445 178.363 26.6011 178.363 27.1787C178.363 27.7703 178.442 28.2345 178.599 28.5701C178.757 28.9068 178.975 29.0746 179.253 29.0746C179.531 29.0746 179.749 28.9068 179.909 28.5701C180.071 28.2345 180.15 27.7769 180.15 27.1993C180.15 26.6208 180.073 26.1585 179.918 25.8144C179.765 25.4722 179.557 25.3006 179.296 25.3006ZM101.691 18.6059C98.019 19.4245 93.2959 19.6673 89.8871 18.1061C86.9774 16.8394 85.1782 13.8174 84.8083 10.8601C84.4215 7.22958 85.7971 4.04819 88.7181 1.91132C92.1354 -0.517155 97.5501 -0.437458 101.271 1.25216V4.94644C98.4558 3.66188 94.2205 2.90615 91.5203 4.94644C89.5795 6.42697 88.9785 8.77199 89.4644 11.1189C89.855 12.966 91.4533 14.6369 93.2337 15.2473C94.496 15.6477 96.0452 15.778 97.451 15.6017V12.59L95.5942 12.5947V8.96608H101.688V18.6059H101.691ZM56.6405 3.75289V18.8441H51.8542V3.75289H45.113L45.113 0.223635H63.3836L63.3836 3.75289H56.6405ZM70.134 0.222658L75.609 0.222658L83.9155 18.8431L78.8726 18.8431L77.3337 15.1882H68.9405L67.4979 18.8431H62.4531L70.134 0.222658ZM72.96 4.84142L70.2607 11.8024L75.8801 11.8024L72.96 4.84142ZM109.458 8.2469H120.096L120.087 0.227318H122.949V18.8469H120.087L120.096 10.7551H109.458L109.458 18.8469H106.604V0.227318H109.458L109.458 8.2469ZM154.502 13.598C154.305 14.0799 153.056 16.7522 149.74 16.7522C146.415 16.7522 145.918 14.1953 145.918 12.6716V2.72705H143.066L143.063 12.2862C143.063 18.7372 147.952 19.2379 149.449 19.2379C151.915 19.2379 153.563 18.1858 154.504 17.3166L154.501 18.8534H157.363V2.72705H154.505L154.502 13.598ZM185.723 2.39513C188.001 2.39513 189.763 4.34353 189.837 4.42605L188.091 6.7767L188.09 6.77617C188.056 6.7397 186.561 5.15459 185.14 5.15459C183.431 5.15459 181.377 7.97593 180.636 9.20986L180.633 18.8469H177.777V2.68111H180.637L180.634 5.65341C181.757 4.31259 183.714 2.39513 185.723 2.39513ZM125.178 10.7541C125.178 5.70777 128.55 2.39417 133.022 2.39417C138.438 2.39417 140.907 6.26004 140.907 10.2478V10.7672L128.142 10.7672V10.7991C128.142 14.544 130.584 16.5693 134.081 16.5693C137.291 16.5693 139.692 14.3265 139.717 14.3031L140.601 13.4658V16.7747L140.432 16.9284C140.33 17.0213 137.89 19.205 133.876 19.205C127.539 19.205 125.178 14.2234 125.178 10.7541ZM133.015 5.07584C130.914 5.07584 129.28 5.98535 128.551 8.2563L137.642 8.2563C137.382 7.11801 136.427 5.07584 133.015 5.07584ZM167.581 2.39417C163.109 2.39417 159.737 5.70777 159.737 10.7541C159.737 14.2234 162.099 19.205 168.435 19.205C172.45 19.205 174.889 17.0213 174.991 16.9284L175.16 16.7747V13.4658L174.276 14.3031C174.252 14.3265 171.85 16.5693 168.641 16.5693C165.143 16.5693 162.701 14.544 162.701 10.7991V10.7672H175.466V10.2478C175.466 6.26004 172.998 2.39417 167.581 2.39417ZM163.11 8.2563C163.839 5.98535 165.473 5.07584 167.574 5.07584C170.986 5.07584 171.941 7.11801 172.201 8.2563H163.11ZM1.71338 19.6223L1.71432 1.14055L34.4739 1.15087V19.6232L34.457 19.6316L18.1158 28.9799H18.0922L18.0847 28.9752L1.71338 19.6223ZM2.88159 2.23013L2.88159 11.8925L33.3042 11.8925V2.22826L2.88159 2.23013ZM2.88159 19.0429L2.88159 12.9417L33.3042 12.9417V19.0466L18.1 27.7291L2.88159 19.0429ZM20.5822 24.8065L20.5812 14.11C20.5812 14.079 20.5567 14.0537 20.5256 14.0537H19.4283C19.3972 14.0537 19.3717 14.079 19.3717 14.11L19.3717 24.1539L18.1008 24.844L16.8252 24.1539V14.11C16.8252 14.079 16.7998 14.0537 16.7686 14.0537H15.6714C15.6563 14.0537 15.6421 14.0603 15.6308 14.0706C15.6204 14.0809 15.6147 14.0949 15.6147 14.11L15.6147 24.8065C15.6147 24.8262 15.6251 24.8449 15.6431 24.8552L18.0725 26.2411C18.0895 26.2504 18.1112 26.2504 18.1291 26.2401L20.5539 24.8552C20.5709 24.8459 20.5822 24.8271 20.5822 24.8065ZM13.8891 23.8257C13.8721 23.8351 13.8533 23.836 13.8363 23.8257L10.4199 21.8698C10.403 21.8595 10.3926 21.8407 10.3926 21.8201V14.1099C10.3926 14.079 10.4171 14.0537 10.4464 14.0537H13.8637C13.8929 14.0537 13.9174 14.079 13.9174 14.1099V15.0485C13.9174 15.0794 13.8929 15.1047 13.8637 15.1047H11.5606V17.3269L13.6372 17.7845C13.6655 17.7911 13.691 17.8164 13.691 17.8379L13.6901 18.9809C13.6901 19.0128 13.6665 19.0372 13.6495 19.0381L11.5606 18.5084V21.3072L13.8872 22.5683C13.9052 22.5777 13.9165 22.5974 13.9165 22.6189L13.9165 23.7769C13.9165 23.7976 13.9061 23.8154 13.8891 23.8257ZM26.0409 21.6869V20.6415C26.0409 20.6218 26.0305 20.603 26.0135 20.5927C25.9956 20.5833 25.9749 20.5833 25.9579 20.5918L23.6756 21.8304V18.7521L25.8022 18.2121C25.8267 18.2055 25.8447 18.183 25.8447 18.1567V17.1338C25.8447 17.1169 25.8362 17.101 25.823 17.0897C25.8126 17.0822 25.8003 17.0775 25.788 17.0775L23.6756 17.5379L23.6756 15.1047H25.9833C26.0135 15.1047 26.039 15.0804 26.039 15.0485V14.1099C26.039 14.079 26.0135 14.0536 25.9833 14.0536L22.5708 14.0536C22.5396 14.0536 22.5142 14.079 22.5142 14.1099L22.5142 23.6381C22.5142 23.6588 22.5255 23.6775 22.5425 23.6869C22.5594 23.6972 22.5821 23.6972 22.5991 23.6869L26.0126 21.7357C26.0296 21.7263 26.0409 21.7076 26.0409 21.6869ZM8.45418 20.7559L7.51164 20.2149C7.49371 20.2046 7.48333 20.1868 7.48333 20.1661L7.48333 17.4723L5.21143 16.8957V18.8085C5.21143 18.8281 5.20105 18.8469 5.18312 18.8572C5.16708 18.8666 5.14444 18.8675 5.12746 18.8572L4.19624 18.3312C4.17926 18.3209 4.16794 18.3021 4.16794 18.2815L4.16699 14.11C4.16699 14.095 4.1736 14.0809 4.18397 14.0706C4.19435 14.0603 4.20851 14.0537 4.2236 14.0537H5.15576C5.1869 14.0537 5.21143 14.079 5.21143 14.11V15.9402L7.48333 16.4362V14.11C7.48333 14.079 7.50881 14.0537 7.539 14.0537L8.48248 14.0537C8.51267 14.0537 8.53909 14.079 8.53909 14.11L8.53909 20.7072C8.53909 20.7269 8.52777 20.7456 8.51079 20.7559C8.49286 20.7653 8.4721 20.7662 8.45418 20.7559ZM27.8844 20.6678C27.8665 20.6771 27.8439 20.6771 27.8269 20.6678C27.8099 20.6575 27.7995 20.6387 27.7995 20.619L27.7986 14.1212C27.7986 14.0884 27.8278 14.0546 27.8561 14.0546H31.5055C31.5131 14.0537 31.5282 14.0537 31.5423 14.0537H31.5423C31.8008 14.0537 31.981 14.1943 32.0235 14.4409L32.0263 16.1362C32.0301 16.484 31.9763 16.6434 31.632 16.7316L30.596 16.9932L32.0603 18.228C32.065 18.2384 32.066 18.2515 32.0631 18.2627C32.0603 18.2777 32.0509 18.2918 32.0367 18.2993L31.1838 18.7916C31.1593 18.8066 31.1262 18.7991 31.1102 18.7766L29.4355 17.2876L28.8657 17.4357V20.1071C28.8657 20.1118 28.8628 20.1155 28.8591 20.1183L27.8844 20.6678ZM30.8427 15.1057H28.8643L28.8643 16.4034L30.8333 15.974C30.9814 15.9393 31.0031 15.8774 31.0031 15.763L31.0031 15.2651C31.0031 15.177 30.9314 15.1057 30.8427 15.1057ZM10.1378 4.9427L10.1378 10.6735H7.89612V4.9427H4.73828V3.41623H13.2957V4.9427H10.1378ZM31.0468 10.5385C29.3278 10.8573 27.1162 10.951 25.5189 10.3444C24.1556 9.85024 23.3149 8.67351 23.1413 7.52209C22.9592 6.10814 23.6027 4.86953 24.9736 4.03691C26.5718 3.09177 29.1079 3.12365 30.8496 3.77999V5.35803C29.5325 4.85827 27.5483 4.42509 26.2831 5.2202C25.3746 5.79497 25.0943 6.70916 25.3217 7.62242C25.5038 8.34252 26.2529 8.99324 27.086 9.23046C27.6767 9.38705 28.4031 9.43768 29.0617 9.3683V8.19531L28.1918 8.19813V6.78511H31.0449L31.0468 10.5385ZM16.274 7.77153L17.6326 5.21647L18.9054 7.77153H16.274ZM14.9007 10.6725L15.6554 9.24734H19.585L20.3776 10.6725H22.6683L18.8897 3.41619H16.3263L12.6155 10.6725H14.9007Z" fill="white"></path>
</svg>
