<svg width="109" height="20" viewBox="0 0 109 20" fill="none" xmlns="http://www.w3.org/2000/svg">
    <path fill-rule="evenodd" clip-rule="evenodd" d="M17.646 19.6281V8.51131L12.9389 19.6281H10.3274L5.69823 8.51131V19.6281H0.835938V0.371857H7.34533L11.8169 11.2444L16.4967 0.371857H22.5075V19.6281H17.646ZM26.251 19.6281V0.371857H30.4087C30.773 0.371857 31.1371 0.740937 31.1371 1.14249V19.6281H26.251ZM44.6268 8.53848H50.8073C51.2949 8.53848 51.5705 8.94282 51.5705 9.41769V19.3648C49.8322 19.7586 47.1155 20 45.0959 20C38.0103 20 34.2734 16.5775 34.2734 9.9743C34.2736 4.08188 38.0103 0 44.2386 0C46.982 0 49.3876 0.740953 50.9361 1.79939L49.0208 5.11329C47.6808 4.50528 45.8783 4.08188 44.6029 4.08188C41.0217 4.08188 39.347 6.48921 39.347 9.9743C39.347 13.6951 41.2863 15.994 44.8628 15.994C45.5164 15.994 46.3311 15.9695 46.982 15.8663V12.4738H44.6268V8.53848ZM62.415 4.08188H60.0229V8.91015H62.415C63.8428 8.91015 64.9653 8.13945 64.9653 6.30739C64.9655 4.45096 63.8426 4.08188 62.415 4.08188ZM66.0165 19.6281L63.761 14.3276C63.3 13.2474 62.9783 12.7127 62.0005 12.7127H60.0241V19.6281H55.2476V1.14249C55.2476 0.740937 55.6816 0.371857 55.9923 0.371857H62.7349C66.3993 0.371857 69.5413 1.14249 69.5413 5.93557C69.5413 8.08232 68.3687 10.2809 66.1688 10.7261C67.2647 11.1032 68.3687 12.5254 68.9659 14.0697L71.1387 19.6281H66.0165ZM81.6984 4.08188C79.135 4.08188 77.3105 5.93559 77.3105 9.97431C77.3107 14.0697 79.1348 15.9181 81.6983 15.9181C83.8977 15.9181 85.6978 14.0697 85.6978 9.97431C85.698 5.93559 83.8977 4.08188 81.6984 4.08188ZM81.6966 20C75.4739 20 72.1812 15.5463 72.1812 9.9743C72.1812 4.45096 75.4737 0 81.6965 0C87.5258 0 90.8236 4.45096 90.8236 9.9743C90.8238 15.5461 87.5256 20 81.6966 20ZM100.182 20C96.9681 20 93.9835 18.8331 92.6523 17.9048L94.8195 14.0128C96.0278 14.7538 98.3795 15.8936 100.547 15.8936C101.774 15.8936 103.325 15.6548 103.325 14.2734C103.325 12.976 101.592 12.5798 99.3196 11.9202C96.5766 11.1249 93.3835 10.0176 93.3835 6.28023C93.3836 2.25254 96.9166 0 101.514 0C104.549 0 106.901 1.08818 108.101 2.25254L105.462 5.2951C104.158 4.50528 102.824 3.89196 101.329 3.89196C99.5289 3.89196 98.511 4.5841 98.511 5.59087C98.5112 6.58968 99.8155 7.09994 101.46 7.60196C104.367 8.51132 108.337 9.43954 108.337 13.2963C108.337 17.2696 105.202 20 100.182 20Z" fill="white"></path>
</svg>
