<svg width="30" height="30" viewBox="0 0 30 30" fill="none" xmlns="http://www.w3.org/2000/svg">
    <path fill-rule="evenodd" clip-rule="evenodd" d="M29.9891 0H0.337891V30H29.9891V0ZM26.4479 24.1097V20.7782C26.4479 20.1032 26.2439 19.8081 25.6168 19.8081H23.7902C23.2029 19.8081 22.9143 20.1032 22.9143 20.6516C22.9143 21.1575 23.2477 21.4521 23.7902 21.4521H24.4123V24.6989C24.2879 24.7428 24.0789 24.7847 23.7056 24.7847C22.2473 24.7847 21.5406 24.0673 21.5406 20.9467C21.5406 17.6157 22.3767 16.8559 23.621 16.8559C24.1857 16.8559 24.5766 16.9738 24.8964 17.0702C25.1177 17.137 25.305 17.1934 25.4924 17.1934C25.9502 17.1934 26.3683 16.8141 26.3683 16.3091C26.3683 15.9701 26.1991 15.7597 26.0747 15.6331C25.4525 15.1286 24.2033 15 23.6658 15C21.0827 15 19.4204 16.7298 19.4204 20.7782C19.4204 24.6147 20.1719 26.4706 23.4568 26.4706C25.4924 26.4706 26.4479 25.7532 26.4479 24.1097ZM17.6293 15.0439C18.2962 15.0439 18.7939 15.5917 18.5898 16.4771L16.6737 25.0793C16.4646 26.0075 15.9669 26.4706 15.1358 26.4706C14.1802 26.4706 13.7621 26.0075 13.5531 25.164L11.5125 16.6037C11.3085 15.7597 11.6817 15.0439 12.4731 15.0439C12.9708 15.0439 13.3889 15.2971 13.5531 16.0125L14.8869 22.3375C15.0114 22.9292 15.096 23.6446 15.1358 24.1097C15.1756 23.6446 15.2602 22.9292 15.3846 22.3375L16.594 16.0125C16.7135 15.3809 17.0917 15.0439 17.6293 15.0439ZM10.6416 22.9716C10.6416 21.8325 10.1041 20.5678 8.52139 20.4831C9.97467 20.1869 10.3529 19.1331 10.3529 17.9526C10.3529 16.4771 9.97467 15.1286 7.35677 15.1286H5.19178C4.69408 15.1286 4.3208 15.5075 4.3208 15.9701V25.5847C4.3208 26.176 4.69408 26.344 5.19178 26.344H7.18755C10.0195 26.344 10.6416 24.7428 10.6416 22.9716ZM6.89858 19.8081C8.31204 19.8081 8.35186 18.9222 8.35186 18.2054C8.35186 17.0668 8.18762 16.6456 7.023 16.6456H6.40088V19.8081H6.89858ZM7.14743 24.827C8.35186 24.827 8.48126 23.9831 8.48126 23.0548C8.48126 22.0434 8.35186 21.2837 6.98319 21.2837H6.40088V24.827H7.14743Z" fill="white"></path>
</svg>
