<svg version="1.1" id="Ebene_1" xmlns="http://www.w3.org/2000/svg" xmlns:xlink="http://www.w3.org/1999/xlink" x="0px" y="0px" viewBox="0 0 160 28" style="enable-background:new 0 0 160 28;" xml:space="preserve">
    <style type="text/css">
        .st0 {
            fill: #FFFFFF;
        }
    </style>
    <path class="st0" d="M19,11c-0.1,0-0.2,0-0.2,0c-0.1,0.1-0.1,0.2-0.3,0.4c2,0,3.7,0.2,5.7,0.5l-0.6,0.5c-1.8-0.3-3.3-0.4-5.1-0.4
        	c-0.3,0-0.3,0-0.4,0c-0.1,0.1-0.2,0.3-0.4,0.5c0.2,0,0.5,0,0.9,0c1.5,0,3,0.1,4.6,0.4l-0.6,0.5c-1.2-0.2-2.7-0.3-4-0.3
        	c-0.5,0-1,0-1.5,0c-0.1,0.1-0.4,0.4-0.5,0.5c0.6-0.1,1.3-0.1,2.1-0.1c1.2,0,2.3,0.1,3.3,0.2l-0.6,0.5c-0.8-0.1-1.7-0.1-2.5-0.1
        	c-2.1,0-3.7,0.5-5.4,1.5c1.6,1.7,4.3,2.8,6.8,2.8h0.2L20,19.4c-3.7-0.7-7.6-2.3-10.9-4.6c-3.2-2.1-4.3-2.8-6.8-3.9l0-0.6L4,11.1
        	l0.6-0.5l5.5,2.5l-0.4,0.3l-2.8-1.2l-0.3,0.2l1.5,0.8c1.2,0.7,2.2,1,3,1c1.9,0,3.6-1.3,4.7-3.7c0.8-0.1,1.7-0.2,2.8-0.2
        	c2.2,0,4.3,0.2,6.7,0.7l-0.6,0.6C23.2,11.2,20.6,11,19,11z M13.7,26.6c-7.1,0-12.9-5.8-12.9-12.9c0-7.1,5.8-12.9,12.9-12.9
        	c7.1,0,12.9,5.8,12.9,12.9C26.6,20.8,20.8,26.6,13.7,26.6z M13.7,0C6.1,0,0,6.1,0,13.7c0,7.6,6.1,13.7,13.7,13.7
        	c7.6,0,13.7-6.1,13.7-13.7C27.4,6.1,21.3,0,13.7,0z M49.9,19.2h7.9v3.7H45.7V4.6h4.2V19.2z M67.3,9.7h3.9v13.2h-3.7v-1.5
        	c-0.5,1-1.7,1.9-3.7,1.9c-3.4,0-5.1-1.5-5.1-5.9V9.7h3.9v7.5c0,1.8,0.8,2.5,2.4,2.5c1.4,0,2.3-0.8,2.3-2.5V9.7z M74.3,9.2
        	c0-3.2,2-4.9,5.2-4.9c1,0,1.7,0.2,1.7,0.2v3.2c0,0-0.5-0.1-1-0.1c-1.2,0-1.9,0.4-1.9,1.6v0.5h2.9v3.2h-2.9v10h-3.9v-10h-2V9.7h2V9.2
        	z M88.1,9.7h3v3.2h-3V18c0,1.4,0.7,1.8,1.9,1.8c0.5,0,1.1-0.1,1.1-0.1v3.2c0,0-0.9,0.2-1.9,0.2c-3.2,0-5.1-1.4-5.1-4.6v-5.6h-2V9.7
        	h2V5.9h3.9V9.7z M99.8,9.3c3.3,0,5.1,1.5,5.1,5.9v7.7H101v-7.5c0-1.8-0.8-2.5-2.4-2.5c-1.5,0-2.4,0.8-2.4,2.5v7.5h-3.9V4.6h4V11
        	C96.9,10,98,9.3,99.8,9.3z M115,17.7c0,1.4-1.4,2.5-3.4,2.5c-1,0-1.6-0.5-1.6-1.4c0-0.7,0.4-1.3,1.8-1.4l2.3-0.3
        	c0.4-0.1,0.8-0.1,1-0.2V17.7z M112.8,9.3c-3.9,0-5.8,1.5-5.9,4.3h3.8c0.1-0.7,0.5-1.3,2.1-1.3c1.4,0,2.1,0.5,2.1,1.2
        	c0,0.6-0.4,0.9-1.4,1l-2.5,0.3c-3.4,0.4-4.9,1.8-4.9,4.3c0,2.4,1.5,4.2,4.6,4.2c2.1,0,3.4-0.7,4.5-2v1.6h3.6v-8.6
        	C118.7,10.6,116.6,9.3,112.8,9.3z M127.9,9.3c3.4,0,5.2,1.5,5.2,5.9v7.7h-3.9v-7.5c0-1.8-0.8-2.5-2.4-2.5c-1.5,0-2.4,0.8-2.4,2.5
        	v7.5h-3.9V9.7h3.7v1.5C124.6,10.2,125.7,9.3,127.9,9.3z M141.3,14.6c3.3,0.4,5,1.5,5,4.2c0,2.8-2,4.4-6.1,4.4
        	c-4.5,0-6.1-1.8-6.2-4.4h3.9c0.1,1,0.8,1.4,2.3,1.4c1.5,0,2.2-0.4,2.2-1.1c0-0.7-0.5-1-1.9-1.2l-1.4-0.2c-2.9-0.4-4.6-1.5-4.6-4.1
        	c0-2.5,1.9-4.4,5.7-4.4c3.6,0,5.5,1.4,5.7,4.3h-3.8c-0.1-0.8-0.5-1.2-1.9-1.2c-1.3,0-1.8,0.4-1.8,1c0,0.6,0.3,0.9,1.4,1L141.3,14.6z
        	 M156.2,17.7c0,1.4-1.4,2.5-3.4,2.5c-1,0-1.6-0.5-1.6-1.4c0-0.7,0.4-1.3,1.8-1.4l2.3-0.3c0.4-0.1,0.8-0.1,1-0.2V17.7z M154,9.3
        	c-3.9,0-5.8,1.5-5.9,4.3h3.8c0.1-0.7,0.5-1.3,2.1-1.3c1.4,0,2.1,0.5,2.1,1.2c0,0.6-0.4,0.9-1.4,1l-2.5,0.3c-3.4,0.4-4.9,1.8-4.9,4.3
        	c0,2.4,1.5,4.2,4.6,4.2c2.1,0,3.4-0.7,4.5-2v1.6h3.6v-8.6C160,10.6,157.9,9.3,154,9.3z"></path>
</svg>
