<svg xmlns="http://www.w3.org/2000/svg" viewBox="0 0 254.39 195.53">
    <defs>
        <style>
            .d {
                fill: #fff;
            }
        </style>
    </defs>
    <g id="a"></g>
    <g id="b">
        <g id="c">
            <g>
                <path class="d" d="M0,0V195.53H254.39V0H0ZM156.25,57.44h8.95v12.68h15.81v-12.68h8.95v34.3h-8.95v-14.66h-15.81v14.66h-8.95V57.44Zm-27.48-1.33c12.19,0,21.1,7.81,21.1,18.49s-8.93,18.47-21.1,18.47-21.09-7.82-21.09-18.47,8.91-18.49,21.09-18.49Zm-55.81,1.33h14.61c9.82,0,14.53,3.48,14.53,10.75,0,4.46-2.26,7.85-6.49,9.76l11.4,13.79h-11.44l-12.43-16.89h1.01l1.97,.05c4.45,0,6.99-2.1,6.99-5.77s-2.27-5.21-7.33-5.21h-3.86v27.83h-8.95V57.44Zm-43.39,17.46c0-11.26,8.12-18.46,20.84-18.46,4.6,0,7.68,.73,13.91,3.27v6.84c-4.88-2.51-8.9-3.65-12.96-3.65-7.26,0-12.32,4.97-12.32,12.1,0,6.62,4.23,11.27,10.26,11.27,2.34,0,4.68-.49,7.03-1.48v-10.28h9.09v13.85c-4.57,2.67-10.83,4.37-16.11,4.37-11.85,0-19.73-7.13-19.73-17.84Zm156.16,57.56l-1.06-.32c-5.5-1.7-10.24-2.59-13.85-2.59-3.67,0-8.09,.81-14.08,2.59l-2.34,.76-2.36,.78-2.35,.81-2.34,.79-2.35,.78-2.35,.7c-4.98,1.49-10.48,2.45-14.08,2.45-4.2,0-9.39-.99-16.44-3.16l-2.35-.78-2.34-.79-2.35-.81-2.36-.78-2.34-.76-2.35-.68c-3.91-1.13-8.67-1.91-11.71-1.91-3.62,0-8.36,.89-13.87,2.59l-1.06,.32-4.72-2.45c1.2-.44,1.55-.56,3.21-1.1l2.33-.69c4.69-1.39,10.58-2.39,14.09-2.39,4.14,0,9.61,1.02,16.41,3.08l2.36,.78,2.35,.81,2.34,.8,2.35,.8,2.35,.74c5.06,1.6,10.45,2.6,14.09,2.6,4.22,0,9.3-1.03,16.43-3.34l2.35-.8,2.34-.8,2.35-.81c.39-.13,1.18-.39,2.36-.78l2.34-.69c4.68-1.39,10.58-2.39,14.07-2.39,4.16,0,9.62,1.02,16.43,3.08l2.35,.78,.86,.31-4.72,2.45Zm16.54-8.61l-7.61-2.31-6.28-1.85-2.52-.74c-6.69-1.98-11.18-2.81-15.05-2.81-3.49,0-9.87,1.17-14.08,2.58l-11.73,3.94c-5.45,1.83-12.32,3.14-16.48,3.14s-10.98-1.3-16.48-3.14l-11.74-3.94c-4.23-1.42-10.57-2.58-14.07-2.58-3.86,0-8.39,.84-15.06,2.81l-2.52,.74-6.27,1.85-7.59,2.31c-1.64-1.11-2.02-1.42-3.48-2.74l13.66-4.2c5.99-1.85,8.56-2.56,11.81-3.27,3.45-.76,6.95-1.21,9.45-1.21,3.97,0,11.56,1.41,16.43,3.06l9.39,3.18c6.39,2.16,12.19,3.34,16.47,3.34s10.12-1.19,16.48-3.34l9.4-3.18c4.88-1.65,12.44-3.06,16.41-3.06,2.52,0,5.99,.44,9.46,1.21,3.28,.72,5.65,1.39,11.8,3.27l13.67,4.2c-1.47,1.32-1.86,1.62-3.48,2.74Zm17.1-15.3c-.88,1.46-1.27,2-2.58,3.56-1.67,.23-2.33,.28-3.65,.28-4.19,0-11.04-1.31-16.51-3.16l-9.39-3.17c-6.38-2.15-12.21-3.34-16.42-3.34-3.55,0-9.77,1.14-14.08,2.59l-11.73,3.93c-5.53,1.85-12.31,3.16-16.42,3.16s-10.9-1.31-16.44-3.16l-11.73-3.93c-4.31-1.44-10.52-2.59-14.08-2.59-4.21,0-10.05,1.19-16.43,3.34l-9.39,3.17c-5.48,1.84-12.32,3.16-16.52,3.16-1.32,0-1.98-.05-3.63-.28-1.22-1.4-1.69-2.05-2.6-3.56l-.39-.65c3.18,.52,4.96,.71,6.7,.71,4.18,0,10.16-1.22,16.43-3.34l9.39-3.18c4.96-1.68,12.37-3.07,16.43-3.07,4.03,0,11.45,1.39,16.41,3.07l9.39,3.18c6.26,2.12,12.25,3.34,16.43,3.34s10.17-1.22,16.43-3.34l9.4-3.18c4.95-1.68,12.38-3.07,16.4-3.07s11.46,1.39,16.43,3.07l9.39,3.18c6.27,2.12,12.25,3.34,16.43,3.34,1.75,0,3.52-.19,6.7-.71l-.39,.65Zm5.87-16.8h-25.74V57.44h23.78v6.72h-14.85v6.25h12.36v6.46h-12.36v8.15h16.8v6.72Z"></path>
                <path class="d" d="M128.77,86.62c6.86,0,11.66-4.95,11.66-12.01s-4.79-12.02-11.66-12.02-11.66,4.94-11.66,12.02c0,7.06,4.8,12.01,11.66,12.01Z"></path>
            </g>
        </g>
    </g>
</svg>
