<svg width="63" height="152" viewBox="0 0 63 152" fill="none" xmlns="http://www.w3.org/2000/svg">
    <path d="M37.56 31.7168C37.56 35.0584 34.8414 37.7487 31.5282 37.7487C28.2149 37.7487 25.4963 35.0301 25.4963 31.7168C25.4963 28.4035 28.2149 25.685 31.5282 25.685C34.8414 25.685 37.56 28.3752 37.56 31.7168ZM55.6839 31.7168C51.691 41.4867 42.3742 48.3398 31.4998 48.3398C20.6255 48.3398 11.3087 41.4867 7.31577 31.7168C11.3087 21.9469 20.6255 15.0938 31.4998 15.0938C42.3742 15.0938 51.691 21.9469 55.6839 31.7168ZM45.0928 31.7168C45.0928 24.2124 39.0043 18.1239 31.4998 18.1239C23.9954 18.1239 17.9069 24.2124 17.9069 31.7168C17.9069 39.2212 23.9954 45.3097 31.4998 45.3097C39.0043 45.3097 45.0928 39.2212 45.0928 31.7168ZM31.4998 0C21.8432 0 13.3759 5.46549 8.84497 13.5929V18.1239C14.2538 11.6673 22.4096 7.56106 31.4998 7.56106C40.5901 7.56106 48.7459 11.6673 54.1547 18.1239V13.5929C49.6237 5.46549 41.1848 0 31.4998 0ZM25.8361 54.7681C23.3441 54.7681 21.3051 56.8071 21.3051 59.2991C21.3051 61.7911 23.3441 63.8301 25.8361 63.8301C28.3282 63.8301 30.3671 61.7911 30.3671 59.2991C30.3671 56.7788 28.3282 54.7681 25.8361 54.7681ZM37.1919 54.7681C34.6998 54.7681 32.6609 56.8071 32.6609 59.2991C32.6609 61.7911 34.6998 63.8301 37.1919 63.8301C39.6839 63.8301 41.7228 61.7911 41.7228 59.2991C41.6945 56.7788 39.6839 54.7681 37.1919 54.7681ZM0.915771 84.2195C0.915771 88.5805 4.48391 92.1487 8.84497 92.1487C13.0361 92.1487 15.5282 89.2602 16.491 86.3434L21.6733 69.862L6.2963 76.6584C3.18126 78.046 0.915771 80.5097 0.915771 84.2195ZM40.3919 71.3912C38.8344 68.0496 35.4361 65.7274 31.4998 65.7274C27.5636 65.7274 24.1936 68.0496 22.6361 71.3912H40.3919ZM41.3264 75.9221H21.6733V81.2177H41.2981L41.3264 75.9221ZM41.3264 85.7204H21.6733V91.0159H41.2981L41.3264 85.7204ZM22.6361 95.5469C24.1936 98.8885 27.5919 101.211 31.4998 101.211C35.4361 101.211 38.8344 98.8885 40.3919 95.5469H22.6361ZM6.57949 151.08H22.1547V148.248H6.57949V151.08ZM6.57949 145.133H22.1547V142.301H6.57949V145.133ZM12.8096 139.186H22.1547V136.354H12.8096V139.186ZM12.8096 133.239H22.1547V130.407H12.8096V133.239ZM40.845 151.08H56.4202V148.248H40.845V151.08ZM40.845 145.133H56.4202V142.301H40.845V145.133ZM40.845 139.186H50.1901V136.354H40.845V139.186ZM50.1901 130.407H40.845V133.239H50.1901V130.407ZM40.845 127.292H50.1901V124.46H32.6609L31.6698 127.292H39.8821L40.845 124.602V127.292ZM50.1901 118.513H34.7282L33.737 121.345H50.1618V118.513H50.1901ZM38.8627 106.619L37.8715 109.451H56.4202V106.619H38.8627ZM31.4998 151.051L32.491 148.248H30.5087L31.4998 151.051ZM29.4043 145.133H33.5954L34.5866 142.301H28.3848L29.4043 145.133ZM27.3087 139.186H35.691L36.6821 136.354H26.2892L27.3087 139.186ZM25.2131 133.239H37.7866L38.7777 130.407H24.1936L25.2131 133.239ZM12.8096 121.345H29.2344L28.2432 118.513H12.8096V121.345ZM35.8326 115.398H56.4202V112.566H36.7954L35.8326 115.398ZM26.2043 112.566H6.57949V115.398H27.1954L26.2043 112.566ZM24.137 106.619H6.57949V109.451H25.1282L24.137 106.619ZM31.3299 127.292L30.3388 124.46H12.8096V127.292H22.1547V124.602L23.1175 127.292H31.3299ZM56.7034 76.6584L41.3264 69.862L46.5087 86.3434C47.4998 89.2885 49.9636 92.1487 54.1547 92.1487C58.5158 92.1487 62.0839 88.5805 62.0839 84.2195C62.1122 80.5097 59.8184 78.046 56.7034 76.6584Z" fill="white"></path>
</svg>
